<svg xmlns="http://www.w3.org/2000/svg" viewBox="0 0 64 96">
  <!-- Generic NPC - friendly character -->
  <defs>
    <radialGradient id="npcHead" cx="50%" cy="35%" r="50%">
      <stop offset="0%" stop-color="#ffe8d0"/>
      <stop offset="100%" stop-color="#e8c898"/>
    </radialGradient>
  </defs>
  <!-- Head -->
  <ellipse cx="32" cy="18" rx="15" ry="17" fill="url(#npcHead)"/>
  <!-- Hair -->
  <ellipse cx="32" cy="10" rx="16" ry="11" fill="#6a5030"/>
  <!-- Eyes -->
  <circle cx="27" cy="18" r="2.5" fill="#2a1a0a"/>
  <circle cx="37" cy="18" r="2.5" fill="#2a1a0a"/>
  <!-- Smile -->
  <path d="M29 24 Q32 28 35 24" stroke="#2a1a0a" stroke-width="1.5" fill="none"/>
  <!-- Body -->
  <path d="M18 35 L14 78 Q32 88 50 78 L46 35 Z" fill="#7a9a6a"/>
  <line x1="32" y1="38" x2="32" y2="82" stroke="#6a8a5a" stroke-width="1"/>
  <!-- Arms -->
  <path d="M18 38 L8 58 L12 64 L22 48" fill="#ffe8d0"/>
  <path d="M46 38 L56 58 L52 64 L42 48" fill="#ffe8d0"/>
  <!-- Legs -->
  <rect x="23" y="75" width="9" height="13" rx="3" fill="#4a5a3a"/>
  <rect x="33" y="75" width="9" height="13" rx="3" fill="#4a5a3a"/>
  <!-- Feet -->
  <rect x="21" y="86" width="13" height="6" rx="3" fill="#5a3a2a"/>
  <rect x="31" y="86" width="13" height="6" rx="3" fill="#5a3a2a"/>
</svg>
